<svg width="1560" height="33" viewBox="0 0 1560 33" fill="none" xmlns="http://www.w3.org/2000/svg">
<path d="M-62 32H763L784 14H1622" stroke="#B3B1AD"/>
<path d="M21 9C22.9797 9 70.4915 9 94 9" stroke="#B3B1AD" stroke-width="10"/>
<path d="M105.77 10.8926C105.77 11.2015 105.711 11.4914 105.592 11.7622C105.478 12.033 105.319 12.27 105.116 12.4731C104.913 12.6763 104.676 12.8371 104.405 12.9556C104.134 13.0698 103.845 13.127 103.536 13.127H103.148C102.84 13.127 102.548 13.0698 102.272 12.9556C102.002 12.8371 101.765 12.6763 101.562 12.4731C101.358 12.27 101.198 12.033 101.079 11.7622C100.965 11.4914 100.908 11.2015 100.908 10.8926V6.00488C100.908 5.69596 100.965 5.40609 101.079 5.13525C101.198 4.86442 101.358 4.62744 101.562 4.42432C101.765 4.22119 102.002 4.0625 102.272 3.94824C102.548 3.82975 102.84 3.77051 103.148 3.77051H103.536C103.845 3.77051 104.134 3.82975 104.405 3.94824C104.676 4.0625 104.913 4.22119 105.116 4.42432C105.319 4.62744 105.478 4.86442 105.592 5.13525C105.711 5.40609 105.77 5.69596 105.77 6.00488V10.8926ZM104.951 6.00488C104.951 5.80176 104.913 5.61344 104.837 5.43994C104.761 5.26221 104.657 5.10775 104.526 4.97656C104.395 4.84538 104.24 4.7417 104.062 4.66553C103.889 4.58936 103.701 4.55127 103.498 4.55127H103.187C102.983 4.55127 102.793 4.58936 102.615 4.66553C102.442 4.7417 102.287 4.84538 102.152 4.97656C102.021 5.10775 101.917 5.26221 101.841 5.43994C101.765 5.61344 101.727 5.80176 101.727 6.00488V10.8926C101.727 11.0957 101.765 11.2861 101.841 11.4639C101.917 11.6374 102.021 11.7918 102.152 11.9272C102.287 12.0584 102.442 12.1621 102.615 12.2383C102.793 12.3145 102.983 12.3525 103.187 12.3525H103.498C103.701 12.3525 103.889 12.3145 104.062 12.2383C104.24 12.1621 104.395 12.0584 104.526 11.9272C104.657 11.7918 104.761 11.6374 104.837 11.4639C104.913 11.2861 104.951 11.0957 104.951 10.8926V6.00488ZM109.68 4.55127C109.477 4.55127 109.287 4.58936 109.109 4.66553C108.935 4.7417 108.783 4.84538 108.652 4.97656C108.521 5.10775 108.417 5.26221 108.341 5.43994C108.265 5.61344 108.227 5.80176 108.227 6.00488V6.37305L107.408 6.23975V6.00488C107.408 5.69596 107.465 5.40609 107.579 5.13525C107.698 4.86442 107.858 4.62744 108.062 4.42432C108.265 4.22119 108.502 4.0625 108.772 3.94824C109.043 3.82975 109.333 3.77051 109.642 3.77051H110.029C110.338 3.77051 110.628 3.82552 110.899 3.93555C111.174 4.04557 111.413 4.20426 111.616 4.41162C111.819 4.61898 111.978 4.86865 112.092 5.16064C112.211 5.4484 112.27 5.77425 112.27 6.13818C112.27 6.49788 112.215 6.8597 112.105 7.22363C111.999 7.58757 111.857 7.94515 111.68 8.29639C111.506 8.64762 111.305 8.98828 111.077 9.31836C110.852 9.64844 110.622 9.95947 110.385 10.2515C109.83 10.9328 109.202 11.5887 108.5 12.2192H112.333V13H107.211V12.3525C108.002 11.7008 108.709 11.0259 109.331 10.3276C109.598 10.0272 109.858 9.70768 110.112 9.36914C110.366 9.0306 110.592 8.68359 110.791 8.32812C110.99 7.96842 111.149 7.60449 111.267 7.23633C111.39 6.86393 111.451 6.49788 111.451 6.13818C111.451 5.87158 111.411 5.63883 111.331 5.43994C111.25 5.24105 111.142 5.07601 111.007 4.94482C110.871 4.81364 110.715 4.71631 110.537 4.65283C110.364 4.58512 110.182 4.55127 109.991 4.55127H109.68Z" fill="#B3B1AD"/>
</svg>
