<svg width="44" height="981" viewBox="0 0 44 981" fill="none" xmlns="http://www.w3.org/2000/svg">
<path d="M16 -61V981" stroke="#B3B1AD"/>
<rect x="16" y="526" width="8" height="8" fill="#B3B1AD"/>
<path d="M5.77002 682.893C5.77002 683.201 5.71077 683.491 5.59229 683.762C5.47803 684.033 5.31934 684.27 5.11621 684.473C4.91309 684.676 4.67611 684.837 4.40527 684.956C4.13444 685.07 3.84456 685.127 3.53564 685.127H3.14844C2.83952 685.127 2.54753 685.07 2.27246 684.956C2.00163 684.837 1.76465 684.676 1.56152 684.473C1.3584 684.27 1.19759 684.033 1.0791 683.762C0.964844 683.491 0.907715 683.201 0.907715 682.893V678.005C0.907715 677.696 0.964844 677.406 1.0791 677.135C1.19759 676.864 1.3584 676.627 1.56152 676.424C1.76465 676.221 2.00163 676.062 2.27246 675.948C2.54753 675.83 2.83952 675.771 3.14844 675.771H3.53564C3.84456 675.771 4.13444 675.83 4.40527 675.948C4.67611 676.062 4.91309 676.221 5.11621 676.424C5.31934 676.627 5.47803 676.864 5.59229 677.135C5.71077 677.406 5.77002 677.696 5.77002 678.005V682.893ZM4.95117 678.005C4.95117 677.802 4.91309 677.613 4.83691 677.44C4.76074 677.262 4.65706 677.108 4.52588 676.977C4.39469 676.845 4.24023 676.742 4.0625 676.666C3.889 676.589 3.70068 676.551 3.49756 676.551H3.18652C2.9834 676.551 2.79297 676.589 2.61523 676.666C2.44173 676.742 2.28727 676.845 2.15186 676.977C2.02067 677.108 1.91699 677.262 1.84082 677.44C1.76465 677.613 1.72656 677.802 1.72656 678.005V682.893C1.72656 683.096 1.76465 683.286 1.84082 683.464C1.91699 683.637 2.02067 683.792 2.15186 683.927C2.28727 684.058 2.44173 684.162 2.61523 684.238C2.79297 684.314 2.9834 684.353 3.18652 684.353H3.49756C3.70068 684.353 3.889 684.314 4.0625 684.238C4.24023 684.162 4.39469 684.058 4.52588 683.927C4.65706 683.792 4.76074 683.637 4.83691 683.464C4.91309 683.286 4.95117 683.096 4.95117 682.893V678.005ZM7.73145 685V684.219H9.90234V676.678L7.73145 677.592V676.812L9.90234 675.897H10.7212V684.219H12.8921V685H7.73145Z" fill="#B3B1AD"/>
<rect x="5" y="795" width="6" height="6" fill="#B3B1AD"/>
<rect x="5" y="806" width="6" height="6" fill="#B3B1AD"/>
<path d="M22.684 177.072C22.06 177.072 21.46 176.972 20.884 176.772C20.316 176.564 19.876 176.3 19.564 175.98L19.912 175.296C20.208 175.584 20.604 175.828 21.1 176.028C21.604 176.22 22.132 176.316 22.684 176.316C23.212 176.316 23.64 176.252 23.968 176.124C24.304 175.988 24.548 175.808 24.7 175.584C24.86 175.36 24.94 175.112 24.94 174.84C24.94 174.512 24.844 174.248 24.652 174.048C24.468 173.848 24.224 173.692 23.92 173.58C23.616 173.46 23.28 173.356 22.912 173.268C22.544 173.18 22.176 173.088 21.808 172.992C21.44 172.888 21.1 172.752 20.788 172.584C20.484 172.416 20.236 172.196 20.044 171.924C19.86 171.644 19.768 171.28 19.768 170.832C19.768 170.416 19.876 170.036 20.092 169.692C20.316 169.34 20.656 169.06 21.112 168.852C21.568 168.636 22.152 168.528 22.864 168.528C23.336 168.528 23.804 168.596 24.268 168.732C24.732 168.86 25.132 169.04 25.468 169.272L25.168 169.98C24.808 169.74 24.424 169.564 24.016 169.452C23.616 169.34 23.228 169.284 22.852 169.284C22.348 169.284 21.932 169.352 21.604 169.488C21.276 169.624 21.032 169.808 20.872 170.04C20.72 170.264 20.644 170.52 20.644 170.808C20.644 171.136 20.736 171.4 20.92 171.6C21.112 171.8 21.36 171.956 21.664 172.068C21.976 172.18 22.316 172.28 22.684 172.368C23.052 172.456 23.416 172.552 23.776 172.656C24.144 172.76 24.48 172.896 24.784 173.064C25.096 173.224 25.344 173.44 25.528 173.712C25.72 173.984 25.816 174.34 25.816 174.78C25.816 175.188 25.704 175.568 25.48 175.92C25.256 176.264 24.912 176.544 24.448 176.76C23.992 176.968 23.404 177.072 22.684 177.072ZM30.2468 177.06C29.5908 177.06 29.0148 176.924 28.5188 176.652C28.0228 176.372 27.6348 175.992 27.3548 175.512C27.0748 175.024 26.9348 174.468 26.9348 173.844C26.9348 173.22 27.0668 172.668 27.3308 172.188C27.6028 171.708 27.9708 171.332 28.4348 171.06C28.9068 170.78 29.4348 170.64 30.0188 170.64C30.6108 170.64 31.1348 170.776 31.5908 171.048C32.0548 171.312 32.4188 171.688 32.6828 172.176C32.9468 172.656 33.0788 173.212 33.0788 173.844C33.0788 173.884 33.0748 173.928 33.0668 173.976C33.0668 174.016 33.0668 174.06 33.0668 174.108H27.5828V173.472H32.6108L32.2748 173.724C32.2748 173.268 32.1748 172.864 31.9748 172.512C31.7828 172.152 31.5188 171.872 31.1828 171.672C30.8468 171.472 30.4588 171.372 30.0188 171.372C29.5868 171.372 29.1988 171.472 28.8548 171.672C28.5108 171.872 28.2428 172.152 28.0508 172.512C27.8588 172.872 27.7628 173.284 27.7628 173.748V173.88C27.7628 174.36 27.8668 174.784 28.0748 175.152C28.2908 175.512 28.5868 175.796 28.9628 176.004C29.3468 176.204 29.7828 176.304 30.2708 176.304C30.6548 176.304 31.0108 176.236 31.3388 176.1C31.6748 175.964 31.9628 175.756 32.2028 175.476L32.6828 176.028C32.4028 176.364 32.0508 176.62 31.6268 176.796C31.2108 176.972 30.7508 177.06 30.2468 177.06ZM37.429 177.06C36.805 177.06 36.245 176.924 35.749 176.652C35.261 176.372 34.877 175.992 34.597 175.512C34.317 175.024 34.177 174.468 34.177 173.844C34.177 173.212 34.317 172.656 34.597 172.176C34.877 171.696 35.261 171.32 35.749 171.048C36.245 170.776 36.805 170.64 37.429 170.64C37.965 170.64 38.449 170.744 38.881 170.952C39.313 171.16 39.653 171.472 39.901 171.888L39.265 172.32C39.049 172 38.781 171.764 38.461 171.612C38.141 171.46 37.793 171.384 37.417 171.384C36.969 171.384 36.565 171.488 36.205 171.696C35.845 171.896 35.561 172.18 35.353 172.548C35.145 172.916 35.041 173.348 35.041 173.844C35.041 174.34 35.145 174.772 35.353 175.14C35.561 175.508 35.845 175.796 36.205 176.004C36.565 176.204 36.969 176.304 37.417 176.304C37.793 176.304 38.141 176.228 38.461 176.076C38.781 175.924 39.049 175.692 39.265 175.38L39.901 175.812C39.653 176.22 39.313 176.532 38.881 176.748C38.449 176.956 37.965 177.06 37.429 177.06ZM41.8931 177.06C41.7171 177.06 41.5651 176.996 41.4371 176.868C41.3171 176.74 41.2571 176.584 41.2571 176.4C41.2571 176.208 41.3171 176.052 41.4371 175.932C41.5651 175.812 41.7171 175.752 41.8931 175.752C42.0691 175.752 42.2171 175.812 42.3371 175.932C42.4651 176.052 42.5291 176.208 42.5291 176.4C42.5291 176.584 42.4651 176.74 42.3371 176.868C42.2171 176.996 42.0691 177.06 41.8931 177.06Z" fill="#B3B1AD"/>
<circle cx="23" cy="43" r="2" fill="#B3B1AD"/>
<circle cx="23" cy="50" r="2" fill="#B3B1AD"/>
</svg>
