<svg width="1560" height="33" viewBox="0 0 1560 33" fill="none" xmlns="http://www.w3.org/2000/svg">
<path d="M-62 32H763L784 14H1622" stroke="#B3B1AD"/>
<path d="M21 9C22.9797 9 70.4915 9 94 9" stroke="#B3B1AD" stroke-width="10"/>
<path d="M105.77 10.8926C105.77 11.2015 105.711 11.4914 105.592 11.7622C105.478 12.033 105.319 12.27 105.116 12.4731C104.913 12.6763 104.676 12.8371 104.405 12.9556C104.134 13.0698 103.845 13.127 103.536 13.127H103.148C102.84 13.127 102.548 13.0698 102.272 12.9556C102.002 12.8371 101.765 12.6763 101.562 12.4731C101.358 12.27 101.198 12.033 101.079 11.7622C100.965 11.4914 100.908 11.2015 100.908 10.8926V6.00488C100.908 5.69596 100.965 5.40609 101.079 5.13525C101.198 4.86442 101.358 4.62744 101.562 4.42432C101.765 4.22119 102.002 4.0625 102.272 3.94824C102.548 3.82975 102.84 3.77051 103.148 3.77051H103.536C103.845 3.77051 104.134 3.82975 104.405 3.94824C104.676 4.0625 104.913 4.22119 105.116 4.42432C105.319 4.62744 105.478 4.86442 105.592 5.13525C105.711 5.40609 105.77 5.69596 105.77 6.00488V10.8926ZM104.951 6.00488C104.951 5.80176 104.913 5.61344 104.837 5.43994C104.761 5.26221 104.657 5.10775 104.526 4.97656C104.395 4.84538 104.24 4.7417 104.062 4.66553C103.889 4.58936 103.701 4.55127 103.498 4.55127H103.187C102.983 4.55127 102.793 4.58936 102.615 4.66553C102.442 4.7417 102.287 4.84538 102.152 4.97656C102.021 5.10775 101.917 5.26221 101.841 5.43994C101.765 5.61344 101.727 5.80176 101.727 6.00488V10.8926C101.727 11.0957 101.765 11.2861 101.841 11.4639C101.917 11.6374 102.021 11.7918 102.152 11.9272C102.287 12.0584 102.442 12.1621 102.615 12.2383C102.793 12.3145 102.983 12.3525 103.187 12.3525H103.498C103.701 12.3525 103.889 12.3145 104.062 12.2383C104.24 12.1621 104.395 12.0584 104.526 11.9272C104.657 11.7918 104.761 11.6374 104.837 11.4639C104.913 11.2861 104.951 11.0957 104.951 10.8926V6.00488ZM112.46 10.8926C112.46 11.2015 112.401 11.4914 112.283 11.7622C112.168 12.033 112.01 12.27 111.807 12.4731C111.604 12.6763 111.367 12.8371 111.096 12.9556C110.825 13.0698 110.535 13.127 110.226 13.127H109.839C109.53 13.127 109.238 13.0698 108.963 12.9556C108.692 12.8371 108.455 12.6763 108.252 12.4731C108.049 12.27 107.888 12.033 107.77 11.7622C107.655 11.4914 107.598 11.2015 107.598 10.8926V10.6577L108.417 10.5308V10.8926C108.417 11.0957 108.455 11.2861 108.531 11.4639C108.607 11.6374 108.711 11.7918 108.842 11.9272C108.978 12.0584 109.132 12.1621 109.306 12.2383C109.483 12.3145 109.674 12.3525 109.877 12.3525H110.188C110.391 12.3525 110.579 12.3145 110.753 12.2383C110.931 12.1621 111.085 12.0584 111.216 11.9272C111.347 11.7918 111.451 11.6374 111.527 11.4639C111.604 11.2861 111.642 11.0957 111.642 10.8926V10.1372C111.642 9.93408 111.604 9.74577 111.527 9.57227C111.451 9.39453 111.347 9.24007 111.216 9.10889C111.085 8.9777 110.931 8.87402 110.753 8.79785C110.579 8.72168 110.391 8.68359 110.188 8.68359H109.579V7.90283H110.188C110.391 7.90283 110.579 7.86475 110.753 7.78857C110.931 7.7124 111.085 7.60872 111.216 7.47754C111.347 7.34635 111.451 7.19401 111.527 7.02051C111.604 6.84277 111.642 6.65234 111.642 6.44922V6.00488C111.642 5.80176 111.604 5.61344 111.527 5.43994C111.451 5.26221 111.347 5.10775 111.216 4.97656C111.085 4.84538 110.931 4.7417 110.753 4.66553C110.579 4.58936 110.391 4.55127 110.188 4.55127H109.877C109.674 4.55127 109.483 4.58936 109.306 4.66553C109.132 4.7417 108.978 4.84538 108.842 4.97656C108.711 5.10775 108.607 5.26221 108.531 5.43994C108.455 5.61344 108.417 5.80176 108.417 6.00488V6.37305L107.598 6.23975V6.00488C107.598 5.69596 107.655 5.40609 107.77 5.13525C107.888 4.86442 108.049 4.62744 108.252 4.42432C108.455 4.22119 108.692 4.0625 108.963 3.94824C109.238 3.82975 109.53 3.77051 109.839 3.77051H110.226C110.535 3.77051 110.825 3.82975 111.096 3.94824C111.367 4.0625 111.604 4.22119 111.807 4.42432C112.01 4.62744 112.168 4.86442 112.283 5.13525C112.401 5.40609 112.46 5.69596 112.46 6.00488V6.31592C112.46 6.53174 112.431 6.7391 112.372 6.93799C112.317 7.13265 112.236 7.31462 112.13 7.48389C112.029 7.65316 111.906 7.80762 111.762 7.94727C111.618 8.08268 111.458 8.19906 111.28 8.29639C111.458 8.38949 111.618 8.50586 111.762 8.64551C111.906 8.78092 112.029 8.93327 112.13 9.10254C112.236 9.27181 112.317 9.45589 112.372 9.65479C112.431 9.84945 112.46 10.0547 112.46 10.2705V10.8926Z" fill="#B3B1AD"/>
</svg>
